Coordinates
version=1
nRows=15
nColumns=34
inDegrees=yes

Units are S.I. units (second, meters, Newtons, ...)
If the header above contains a line with 'inDegrees', this indicates whether rotational values are in degrees (yes) or radians (no).

endheader
time	pelvis_tilt	pelvis_list	pelvis_rotation	pelvis_tx	pelvis_ty	pelvis_tz	hip_flexion_l	hip_adduction_l	hip_rotation_l	hip_flexion_r	hip_adduction_r	hip_rotation_r	knee_angle_l_beta	knee_angle_r_beta	knee_angle_l	knee_angle_r	ankle_angle_l	ankle_angle_r	subtalar_angle_l	subtalar_angle_r	mtp_angle_l	mtp_angle_r	lumbar_ext	lumbar_bend	lumbar_rota	shoulder_flexion_r	shoulder_adduction_r	shoulder_rotation_r	elbow_flexion_r	shoulder_flexion_l	shoulder_adduction_l	shoulder_rotation_l	elbow_flexion_l
      0.17000000	     26.89205596	     -8.63974870	      3.97119145	      0.09109396	      0.90091895	     -0.23752708	    -33.85109171	    -10.49471787	     -7.66553764	     -9.78667611	     11.76496610	      0.80176905	      0.72087361	      0.28563854	    -41.30301523	    -16.36588293	    -10.38724222	     -3.49740310	     -6.57711083	     -7.06872187	      6.04264428	    -15.87315045	    -47.74429647	     11.68859893	      3.13584052	     -0.46538818	     -3.56316804	    -19.72537355	     34.09179797	      5.96419282	     -2.34554672	     -6.51991904	     49.45185337
      0.18000000	     27.04842294	     -8.89149631	      4.15224804	      0.10292489	      0.90226117	     -0.23576836	    -32.36567315	    -11.27245768	     -7.72798845	    -10.87648770	     12.30179939	      1.17356756	      0.77011441	      0.28220993	    -44.12430535	    -16.16943775	    -11.33112478	     -2.69407326	     -7.54918075	     -7.34701095	      5.87471462	    -15.77576502	    -47.85257531	     11.86317090	      3.29973176	     -0.33214083	     -3.56142073	    -19.53761793	     34.23568461	      5.66479305	     -2.27466067	     -6.50661233	     48.91557503
      0.19000000	     26.90892139	     -8.95079740	      4.35461195	      0.11402936	      0.90330051	     -0.23421184	    -30.32212068	    -11.79121189	     -7.49142335	    -11.51027808	     12.60097063	      1.17246724	      0.81983118	      0.28167879	    -46.97286626	    -16.13900609	    -11.88958385	     -2.20726397	     -9.72909272	     -7.78707150	      4.92006158	    -15.79818207	    -47.69815475	     11.90775351	      3.30713145	     -0.06842932	     -3.57626266	    -19.31120815	     34.28148130	      5.54314819	     -2.23285345	     -6.31812765	     48.12829230
      0.20000000	     27.02274605	     -8.70943188	      4.46486663	      0.12491547	      0.90488756	     -0.23261347	    -28.59031864	    -11.83658726	     -7.09471836	    -12.59578049	     12.57352745	      1.32449266	      0.86366050	      0.27676657	    -49.48410170	    -15.85755618	    -12.20442856	     -1.39825050	    -11.63894314	     -7.99986830	      0.02458728	    -15.92610560	    -47.83286709	     11.62628322	      3.25689073	      0.19691031	     -3.54954232	    -19.11371115	     34.39831357	      5.42250768	     -2.22250898	     -6.17286323	     47.45029131
      0.21000000	     27.03530075	     -8.55566389	      4.68776463	      0.13568834	      0.90625960	     -0.23114940	    -26.68494823	    -12.04842914	     -6.60372099	    -13.60029099	     12.64540215	      1.23769591	      0.90356841	      0.26941651	    -51.77065658	    -15.43642922	    -11.67183200	     -0.86062858	    -12.76268617	     -8.17439683	     -0.82202389	    -15.90952686	    -47.84680281	     11.48201336	      3.20694391	      0.47957279	     -3.52575612	    -18.91035803	     34.51420408	      5.32429682	     -2.22981582	     -5.95610977	     46.68819196
      0.22000000	     27.16365024	     -8.21332007	      4.86348262	      0.14637328	      0.90786680	     -0.22972629	    -24.97982620	    -11.97983696	     -6.12694197	    -14.82161695	     12.51525259	      1.17392277	      0.93563466	      0.25987028	    -53.60791726	    -14.88947019	    -10.86705532	     -0.18599248	    -13.97809281	     -8.36281471	     -1.40041292	    -15.88282616	    -47.97351448	     11.14992242	      3.09825724	      0.74027927	     -3.49496270	    -18.69343188	     34.75485263	      5.23509577	     -2.24359190	     -5.79698815	     45.92138790
      0.23000000	     27.32250883	     -7.78256425	      4.87153760	      0.15678418	      0.90965062	     -0.22814383	    -23.36303557	    -11.66758190	     -5.68446520	    -16.14186889	     12.24455835	      1.33685791	      0.96139372	      0.24812317	    -55.08380250	    -14.21641039	    -10.03686564	      0.26091643	    -14.84211133	     -8.35486738	     -1.68220370	    -15.87037347	    -48.19028147	     10.60311569	      3.14198813	      1.02028568	     -3.47668794	    -18.53029309	     34.94371802	      5.16255443	     -2.20789783	     -5.73091649	     45.32758453
      0.24000000	     27.30997939	     -7.08437874	      5.23625191	      0.16685460	      0.91114627	     -0.22745210	    -21.32688173	    -11.04001383	     -4.76242441	    -17.15627271	     11.70201021	      0.41446518	      0.98812334	      0.23906989	    -56.61529690	    -13.69769563	     -8.91785202	      1.05653260	    -15.83885975	     -7.75124214	     -7.94412190	    -15.29064528	    -48.20105048	     10.13845760	      2.78419049	      1.31100749	     -3.42053133	    -18.46961924	     35.20142852	      5.24036737	     -2.28083076	     -5.23658299	     44.33743853
      0.25000000	     27.37557488	     -6.59147420	      5.18769653	      0.17707706	      0.91277180	     -0.22595599	    -19.69422252	    -10.55046732	     -4.44332275	    -18.39844656	     11.34039757	      0.46897090	      1.00232931	      0.22593237	    -57.42923901	    -12.94497111	     -7.88292065	      1.35626739	    -16.39163948	     -7.79923866	     -7.89657415	    -15.31274428	    -48.35201381	      9.51113072	      2.80349208	      1.61405803	     -3.42000459	    -18.28316203	     35.50159023	      5.13751730	     -2.24509851	     -5.24523526	     43.72805274
      0.26000000	     27.39720026	     -5.90238137	      5.46663401	      0.18717785	      0.91418190	     -0.22513331	    -17.92463474	     -9.85430626	     -3.67349669	    -19.53551867	     10.84413273	     -0.23722575	      1.01278683	      0.21416173	    -58.02841077	    -12.27056353	     -6.68493947	      1.81079127	    -16.73134031	     -7.75839848	     -8.01938099	    -15.24117958	    -48.39221071	      8.97662507	      2.50237309	      1.91611690	     -3.39746103	    -18.05647519	     35.78273307	      5.14764617	     -2.31258126	     -4.93375128	     42.78315312
      0.27000000	     27.35448765	     -5.41740799	      5.40072925	      0.19732171	      0.91548998	     -0.22387625	    -16.25563497	     -9.27421358	     -3.44164547	    -20.68071431	     10.45916716	     -0.27794820	      1.01627273	      0.19991320	    -58.22813808	    -11.45418262	     -5.83035670	      2.08909938	    -16.96299623	     -7.61536311	     -8.01644223	    -15.22138580	    -48.43801343	      8.37164216	      2.55318257	      2.23608915	     -3.41286520	    -17.90304620	     36.17053868	      5.00500841	     -2.26381069	     -4.95153009	     42.20376305
      0.28000000	     27.47750203	     -4.65965294	      5.63262556	      0.20755625	      0.91684554	     -0.22327914	    -14.82400448	     -8.40699418	     -2.80426231	    -22.01770109	      9.86908163	     -1.17218824	      1.01368609	      0.18575539	    -58.07993462	    -10.64299959	     -4.65363421	      2.64934205	    -16.57181454	     -7.11961678	     -8.13416859	    -14.95227670	    -48.55978106	      7.75778144	      2.27383710	      2.48898248	     -3.42150605	    -17.70726358	     36.54807544	      4.97916143	     -2.30574973	     -4.64608135	     41.25616212
      0.29000000	     27.47533922	     -4.13574509	      5.64546321	      0.21785877	      0.91784876	     -0.22239727	    -13.38270184	     -7.72631698	     -2.52369753	    -23.22484456	      9.46035383	     -1.45203669	      1.00544168	      0.17109552	    -57.60756459	     -9.80305095	     -3.76163598	      3.07336693	    -16.31235132	     -6.78455070	     -8.16583647	    -14.74832615	    -48.58944605	      7.18232023	      2.25761791	      2.74912436	     -3.47903955	    -17.51403433	     37.05215080	      4.83270556	     -2.25522832	     -4.69380884	     40.52516085
      0.30000000	     27.28504078	     -3.90267908	      5.55584462	      0.22821809	      0.91838609	     -0.22132032	    -11.79095694	     -7.35375965	     -2.50388312	    -24.14065218	      9.31093130	     -1.54933884	      0.99268247	      0.15852771	    -56.87651583	     -9.08296875	     -3.36488241	      3.28262124	    -16.17864353	     -6.67030111	     -8.16730757	    -14.72145251	    -48.45967465	      6.76902604	      2.42801827	      3.08077020	     -3.54698756	    -17.38226960	     37.48697022	      4.52234060	     -2.19972824	     -4.76065673	     40.12867869
      0.31000000	     27.63318622	     -3.14246357	      5.59937831	      0.23892162	      0.91950240	     -0.22068987	    -11.03423535	     -6.43555165	     -2.23570290	    -25.90451727	      8.66673385	     -2.35179858	      0.97164087	      0.13938121	    -55.67092126	     -7.98595482	     -2.14670045	      3.94376950	    -14.87284017	     -5.58412820	     -8.00995916	    -13.84974817	    -48.76679895	      6.04310648	      2.28068664	      3.24823983	     -3.59999331	    -17.07485073	     38.08559426	      4.35091944	     -2.19643116	     -4.77357427	     39.29976954
